<?xml version="1.0" standalone="no"?><svg xmlns:xlink="http://www.w3.org/1999/xlink" xmlns="http://www.w3.org/2000/svg" viewBox="0 0 1000 625.0054863543394" preserveAspectRatio="xMaxYMax slice"><g transform="scale(0.8778166943178924)"><rect x="0" y="0" width="1139.2" height="712" fill="#e4e4e7"/><g transform="translate(160.2,17.8) scale(1.78) rotate(0)"><path d="M10 0L20 10L10 20L0 10L10 0Z" fill="#e5e3e4"/></g><g transform="translate(445,17.8) scale(1.78) rotate(0)"><path d="M10 0L20 10L10 20L0 10L10 0Z" fill="#e4e4e7"/></g><g transform="translate(587.4,17.8) scale(1.78) rotate(0)"><path d="M10 0L20 10L10 20L0 10L10 0Z" fill="#c6c6c8"/></g><g transform="translate(658.6,17.8) scale(1.78) rotate(0)"><path d="M10 0L20 10L10 20L0 10L10 0Z" fill="#e7ddda"/></g><g transform="translate(729.8,17.8) scale(1.78) rotate(0)"><path d="M10 0L20 10L10 20L0 10L10 0Z" fill="#e7dddb"/></g><g transform="translate(801,17.8) scale(1.78) rotate(0)"><path d="M10 0L20 10L10 20L0 10L10 0Z" fill="#dedee1"/></g><g transform="translate(872.2,17.8) scale(1.78) rotate(0)"><path d="M10 0L20 10L10 20L0 10L10 0Z" fill="#e1e1e4"/></g><g transform="translate(943.4,17.8) scale(1.78) rotate(0)"><path d="M10 0L20 10L10 20L0 10L10 0Z" fill="#c3c3c5"/></g><g transform="translate(1085.8,17.8) scale(1.78) rotate(0)"><path d="M10 0L20 10L10 20L0 10L10 0Z" fill="#e6dddc"/></g><g transform="translate(17.8,89) scale(1.78) rotate(0)"><path d="M10 0L20 10L10 20L0 10L10 0Z" fill="#b3b3b4"/></g><g transform="translate(160.2,89) scale(1.78) rotate(0)"><path d="M10 0L20 10L10 20L0 10L10 0Z" fill="#b0b0b1"/></g><g transform="translate(231.4,89) scale(1.78) rotate(0)"><path d="M10 0L20 10L10 20L0 10L10 0Z" fill="#e4e3e6"/></g><g transform="translate(373.8,89) scale(1.78) rotate(0)"><path d="M10 0L20 10L10 20L0 10L10 0Z" fill="#a3a3a4"/></g><g transform="translate(445,89) scale(1.78) rotate(0)"><path d="M10 0L20 10L10 20L0 10L10 0Z" fill="#e6dddc"/></g><g transform="translate(516.2,89) scale(1.78) rotate(0)"><path d="M10 0L20 10L10 20L0 10L10 0Z" fill="#cccccf"/></g><g transform="translate(587.4,89) scale(1.78) rotate(0)"><path d="M10 0L20 10L10 20L0 10L10 0Z" fill="#d4d4d7"/></g><g transform="translate(658.6,89) scale(1.78) rotate(0)"><path d="M10 0L20 10L10 20L0 10L10 0Z" fill="#e7dcda"/></g><g transform="translate(729.8,89) scale(1.78) rotate(0)"><path d="M10 0L20 10L10 20L0 10L10 0Z" fill="#e5e0e0"/></g><g transform="translate(801,89) scale(1.78) rotate(0)"><path d="M10 0L20 10L10 20L0 10L10 0Z" fill="#d6d6d9"/></g><g transform="translate(872.2,89) scale(1.78) rotate(0)"><path d="M10 0L20 10L10 20L0 10L10 0Z" fill="#a6a6a7"/></g><g transform="translate(943.4,89) scale(1.78) rotate(0)"><path d="M10 0L20 10L10 20L0 10L10 0Z" fill="#d3d3d6"/></g><g transform="translate(1085.8,89) scale(1.78) rotate(0)"><path d="M10 0L20 10L10 20L0 10L10 0Z" fill="#e5e1e3"/></g><g transform="translate(17.8,160.2) scale(1.78) rotate(0)"><path d="M10 0L20 10L10 20L0 10L10 0Z" fill="#e5e2e4"/></g><g transform="translate(160.2,160.2) scale(1.78) rotate(0)"><path d="M10 0L20 10L10 20L0 10L10 0Z" fill="#e6e0e0"/></g><g transform="translate(231.4,160.2) scale(1.78) rotate(0)"><path d="M10 0L20 10L10 20L0 10L10 0Z" fill="#e5e0e1"/></g><g transform="translate(302.6,160.2) scale(1.78) rotate(0)"><path d="M10 0L20 10L10 20L0 10L10 0Z" fill="#bcbcbd"/></g><g transform="translate(445,160.2) scale(1.78) rotate(0)"><path d="M10 0L20 10L10 20L0 10L10 0Z" fill="#e6dfdf"/></g><g transform="translate(516.2,160.2) scale(1.78) rotate(0)"><path d="M10 0L20 10L10 20L0 10L10 0Z" fill="#b4b4b5"/></g><g transform="translate(729.8,160.2) scale(1.78) rotate(0)"><path d="M10 0L20 10L10 20L0 10L10 0Z" fill="#e6e0df"/></g><g transform="translate(1085.8,160.2) scale(1.78) rotate(0)"><path d="M10 0L20 10L10 20L0 10L10 0Z" fill="#e4e4e6"/></g><g transform="translate(89,231.4) scale(1.78) rotate(0)"><path d="M10 0L20 10L10 20L0 10L10 0Z" fill="#e6e0df"/></g><g transform="translate(160.2,231.4) scale(1.78) rotate(0)"><path d="M10 0L20 10L10 20L0 10L10 0Z" fill="#dbdbdd"/></g><g transform="translate(373.8,231.4) scale(1.78) rotate(0)"><path d="M10 0L20 10L10 20L0 10L10 0Z" fill="#bdbdbe"/></g><g transform="translate(445,231.4) scale(1.78) rotate(0)"><path d="M10 0L20 10L10 20L0 10L10 0Z" fill="#e6e0e0"/></g><g transform="translate(516.2,231.4) scale(1.78) rotate(0)"><path d="M10 0L20 10L10 20L0 10L10 0Z" fill="#adadae"/></g><g transform="translate(587.4,231.4) scale(1.78) rotate(0)"><path d="M10 0L20 10L10 20L0 10L10 0Z" fill="#e5e0e0"/></g><g transform="translate(729.8,231.4) scale(1.78) rotate(0)"><path d="M10 0L20 10L10 20L0 10L10 0Z" fill="#e5e2e3"/></g><g transform="translate(801,231.4) scale(1.78) rotate(0)"><path d="M10 0L20 10L10 20L0 10L10 0Z" fill="#e6dfdf"/></g><g transform="translate(872.2,231.4) scale(1.78) rotate(0)"><path d="M10 0L20 10L10 20L0 10L10 0Z" fill="#e4e3e6"/></g><g transform="translate(943.4,231.4) scale(1.78) rotate(0)"><path d="M10 0L20 10L10 20L0 10L10 0Z" fill="#e6dedc"/></g><g transform="translate(1085.8,231.4) scale(1.78) rotate(0)"><path d="M10 0L20 10L10 20L0 10L10 0Z" fill="#d9d9dc"/></g><g transform="translate(89,302.6) scale(1.78) rotate(0)"><path d="M10 0L20 10L10 20L0 10L10 0Z" fill="#e4e4e7"/></g><g transform="translate(160.2,302.6) scale(1.78) rotate(0)"><path d="M10 0L20 10L10 20L0 10L10 0Z" fill="#aeaeaf"/></g><g transform="translate(231.4,302.6) scale(1.78) rotate(0)"><path d="M10 0L20 10L10 20L0 10L10 0Z" fill="#e7dcd9"/></g><g transform="translate(302.6,302.6) scale(1.78) rotate(0)"><path d="M10 0L20 10L10 20L0 10L10 0Z" fill="#e6dddc"/></g><g transform="translate(445,302.6) scale(1.78) rotate(0)"><path d="M10 0L20 10L10 20L0 10L10 0Z" fill="#e6dfdf"/></g><g transform="translate(587.4,302.6) scale(1.78) rotate(0)"><path d="M10 0L20 10L10 20L0 10L10 0Z" fill="#e0e0e3"/></g><g transform="translate(658.6,302.6) scale(1.78) rotate(0)"><path d="M10 0L20 10L10 20L0 10L10 0Z" fill="#c7c7c9"/></g><g transform="translate(729.8,302.6) scale(1.78) rotate(0)"><path d="M10 0L20 10L10 20L0 10L10 0Z" fill="#e5e1e2"/></g><g transform="translate(872.2,302.6) scale(1.78) rotate(0)"><path d="M10 0L20 10L10 20L0 10L10 0Z" fill="#d2d2d5"/></g><g transform="translate(943.4,302.6) scale(1.78) rotate(0)"><path d="M10 0L20 10L10 20L0 10L10 0Z" fill="#bbbbbc"/></g><g transform="translate(89,373.8) scale(1.78) rotate(0)"><path d="M10 0L20 10L10 20L0 10L10 0Z" fill="#e5e2e4"/></g><g transform="translate(160.2,373.8) scale(1.78) rotate(0)"><path d="M10 0L20 10L10 20L0 10L10 0Z" fill="#c6c6c7"/></g><g transform="translate(231.4,373.8) scale(1.78) rotate(0)"><path d="M10 0L20 10L10 20L0 10L10 0Z" fill="#c4c4c5"/></g><g transform="translate(445,373.8) scale(1.78) rotate(0)"><path d="M10 0L20 10L10 20L0 10L10 0Z" fill="#e5e1e1"/></g><g transform="translate(516.2,373.8) scale(1.78) rotate(0)"><path d="M10 0L20 10L10 20L0 10L10 0Z" fill="#e5e3e5"/></g><g transform="translate(729.8,373.8) scale(1.78) rotate(0)"><path d="M10 0L20 10L10 20L0 10L10 0Z" fill="#e7dddb"/></g><g transform="translate(872.2,373.8) scale(1.78) rotate(0)"><path d="M10 0L20 10L10 20L0 10L10 0Z" fill="#e4e3e6"/></g><g transform="translate(1085.8,373.8) scale(1.78) rotate(0)"><path d="M10 0L20 10L10 20L0 10L10 0Z" fill="#e6dedc"/></g><g transform="translate(17.8,445) scale(1.78) rotate(0)"><path d="M10 0L20 10L10 20L0 10L10 0Z" fill="#e6e0df"/></g><g transform="translate(89,445) scale(1.78) rotate(0)"><path d="M10 0L20 10L10 20L0 10L10 0Z" fill="#c3c3c5"/></g><g transform="translate(160.2,445) scale(1.78) rotate(0)"><path d="M10 0L20 10L10 20L0 10L10 0Z" fill="#d2d2d4"/></g><g transform="translate(373.8,445) scale(1.78) rotate(0)"><path d="M10 0L20 10L10 20L0 10L10 0Z" fill="#b5b5b6"/></g><g transform="translate(445,445) scale(1.78) rotate(0)"><path d="M10 0L20 10L10 20L0 10L10 0Z" fill="#dddddf"/></g><g transform="translate(587.4,445) scale(1.78) rotate(0)"><path d="M10 0L20 10L10 20L0 10L10 0Z" fill="#e0e0e3"/></g><g transform="translate(658.6,445) scale(1.78) rotate(0)"><path d="M10 0L20 10L10 20L0 10L10 0Z" fill="#e6dedd"/></g><g transform="translate(801,445) scale(1.78) rotate(0)"><path d="M10 0L20 10L10 20L0 10L10 0Z" fill="#afafb0"/></g><g transform="translate(943.4,445) scale(1.78) rotate(0)"><path d="M10 0L20 10L10 20L0 10L10 0Z" fill="#e6e0e0"/></g><g transform="translate(89,516.2) scale(1.78) rotate(0)"><path d="M10 0L20 10L10 20L0 10L10 0Z" fill="#e5e1e2"/></g><g transform="translate(231.4,516.2) scale(1.78) rotate(0)"><path d="M10 0L20 10L10 20L0 10L10 0Z" fill="#e3e3e5"/></g><g transform="translate(373.8,516.2) scale(1.78) rotate(0)"><path d="M10 0L20 10L10 20L0 10L10 0Z" fill="#9e9e9f"/></g><g transform="translate(445,516.2) scale(1.78) rotate(0)"><path d="M10 0L20 10L10 20L0 10L10 0Z" fill="#e5e1e1"/></g><g transform="translate(587.4,516.2) scale(1.78) rotate(0)"><path d="M10 0L20 10L10 20L0 10L10 0Z" fill="#d4d4d6"/></g><g transform="translate(658.6,516.2) scale(1.78) rotate(0)"><path d="M10 0L20 10L10 20L0 10L10 0Z" fill="#d6d6d8"/></g><g transform="translate(943.4,516.2) scale(1.78) rotate(0)"><path d="M10 0L20 10L10 20L0 10L10 0Z" fill="#b5b5b6"/></g><g transform="translate(1085.8,516.2) scale(1.78) rotate(0)"><path d="M10 0L20 10L10 20L0 10L10 0Z" fill="#e6dfdd"/></g><g transform="translate(89,587.4) scale(1.78) rotate(0)"><path d="M10 0L20 10L10 20L0 10L10 0Z" fill="#a9a9a9"/></g><g transform="translate(160.2,587.4) scale(1.78) rotate(0)"><path d="M10 0L20 10L10 20L0 10L10 0Z" fill="#b9b9ba"/></g><g transform="translate(231.4,587.4) scale(1.78) rotate(0)"><path d="M10 0L20 10L10 20L0 10L10 0Z" fill="#a1a1a1"/></g><g transform="translate(302.6,587.4) scale(1.78) rotate(0)"><path d="M10 0L20 10L10 20L0 10L10 0Z" fill="#e5e3e4"/></g><g transform="translate(373.8,587.4) scale(1.78) rotate(0)"><path d="M10 0L20 10L10 20L0 10L10 0Z" fill="#e5e1e2"/></g><g transform="translate(445,587.4) scale(1.78) rotate(0)"><path d="M10 0L20 10L10 20L0 10L10 0Z" fill="#e7dcda"/></g><g transform="translate(516.2,587.4) scale(1.78) rotate(0)"><path d="M10 0L20 10L10 20L0 10L10 0Z" fill="#e6e0e0"/></g><g transform="translate(587.4,587.4) scale(1.78) rotate(0)"><path d="M10 0L20 10L10 20L0 10L10 0Z" fill="#e5e0e0"/></g><g transform="translate(658.6,587.4) scale(1.78) rotate(0)"><path d="M10 0L20 10L10 20L0 10L10 0Z" fill="#c0c0c2"/></g><g transform="translate(729.8,587.4) scale(1.78) rotate(0)"><path d="M10 0L20 10L10 20L0 10L10 0Z" fill="#e6dedc"/></g><g transform="translate(801,587.4) scale(1.78) rotate(0)"><path d="M10 0L20 10L10 20L0 10L10 0Z" fill="#bababb"/></g><g transform="translate(943.4,587.4) scale(1.78) rotate(0)"><path d="M10 0L20 10L10 20L0 10L10 0Z" fill="#d3d3d5"/></g><g transform="translate(1014.6,587.4) scale(1.78) rotate(0)"><path d="M10 0L20 10L10 20L0 10L10 0Z" fill="#e4e3e5"/></g><g transform="translate(17.8,658.6) scale(1.78) rotate(0)"><path d="M10 0L20 10L10 20L0 10L10 0Z" fill="#e6dfde"/></g><g transform="translate(89,658.6) scale(1.78) rotate(0)"><path d="M10 0L20 10L10 20L0 10L10 0Z" fill="#c1c1c3"/></g><g transform="translate(302.6,658.6) scale(1.78) rotate(0)"><path d="M10 0L20 10L10 20L0 10L10 0Z" fill="#bababb"/></g><g transform="translate(373.8,658.6) scale(1.78) rotate(0)"><path d="M10 0L20 10L10 20L0 10L10 0Z" fill="#cacacc"/></g><g transform="translate(445,658.6) scale(1.78) rotate(0)"><path d="M10 0L20 10L10 20L0 10L10 0Z" fill="#e5e1e1"/></g><g transform="translate(587.4,658.6) scale(1.78) rotate(0)"><path d="M10 0L20 10L10 20L0 10L10 0Z" fill="#e7dddb"/></g><g transform="translate(729.8,658.6) scale(1.78) rotate(0)"><path d="M10 0L20 10L10 20L0 10L10 0Z" fill="#cacacc"/></g><g transform="translate(801,658.6) scale(1.78) rotate(0)"><path d="M10 0L20 10L10 20L0 10L10 0Z" fill="#d1d1d4"/></g><g transform="translate(872.2,658.6) scale(1.78) rotate(0)"><path d="M10 0L20 10L10 20L0 10L10 0Z" fill="#e5e2e3"/></g><g transform="translate(943.4,658.6) scale(1.78) rotate(0)"><path d="M10 0L20 10L10 20L0 10L10 0Z" fill="#e7ddda"/></g></g></svg>